<svg width="303" height="66" viewBox="0 0 303 66" fill="none" xmlns="http://www.w3.org/2000/svg">
<g clip-path="url(#clip0)">
<path d="M25.9786 34.6334L31.7225 36.6874C30.7913 38.0394 29.7714 39.3282 28.6696 40.5453C26.4576 42.7578 23.6391 44.2646 20.5707 44.8751C17.5022 45.4857 14.3217 45.1726 11.4312 43.9755C8.54071 42.7784 6.07014 40.751 4.33194 38.1497C2.59373 35.5484 1.66599 32.4901 1.66599 29.3615C1.66599 26.2329 2.59373 23.1746 4.33194 20.5733C6.07014 17.972 8.54071 15.9447 11.4312 14.7475C14.3217 13.5504 17.5022 13.2373 20.5707 13.8479C23.6391 14.4585 26.4576 15.9652 28.6696 18.1777C29.7662 19.3788 30.7858 20.648 31.7225 21.9776L25.9786 24.0866C25.238 23.1812 24.738 22.5989 24.4787 22.3396C23.0919 20.9666 21.3296 20.035 19.414 19.6624C17.4984 19.2897 15.5154 19.4927 13.7151 20.2457C11.9147 20.9988 10.3777 22.2681 9.29789 23.8936C8.21808 25.5191 7.64383 27.428 7.64759 29.3795C7.65135 31.3309 8.23294 33.2376 9.31901 34.8589C10.4051 36.4803 11.947 37.7436 13.7502 38.4897C15.5535 39.2358 17.5372 39.4311 19.4514 39.0511C21.3655 38.6711 23.1242 37.7327 24.5057 36.3544C24.7457 36.0951 25.2363 35.5211 25.9776 34.6324" fill="#ffffff"/>
<path d="M52.509 13.5438C56.1717 13.5359 59.7236 14.7988 62.5592 17.1171C65.3948 19.4354 67.3385 22.6655 68.0588 26.2566C68.779 29.8478 68.2313 33.5776 66.5089 36.81C64.7866 40.0424 61.9963 42.5773 58.6139 43.9825C55.2315 45.3876 51.4664 45.5759 47.9606 44.5153C44.4549 43.4547 41.4256 41.2109 39.3893 38.1664C37.353 35.122 36.4358 31.4655 36.7941 27.8204C37.1524 24.1753 38.7641 20.7674 41.3542 18.1777C42.7978 16.6836 44.5326 15.5015 46.4512 14.7044C48.3699 13.9074 50.4316 13.5124 52.509 13.5438ZM45.5021 22.3676C43.8904 23.9882 42.8901 26.1172 42.6715 28.3923C42.4529 30.6674 43.0296 32.9479 44.3033 34.8457C45.577 36.7434 47.4691 38.1411 49.6574 38.8008C51.8457 39.4604 54.195 39.3413 56.3053 38.4637C58.4157 37.586 60.1566 36.0041 61.2319 33.9873C62.3071 31.9704 62.6501 29.6433 62.2025 27.402C61.7549 25.1606 60.5444 23.1437 58.777 21.6945C57.0096 20.2453 54.7946 19.4534 52.509 19.4537C51.204 19.4354 49.9091 19.6845 48.704 20.1856C47.499 20.6868 46.4093 21.4294 45.5021 22.3676Z" fill="#ffffff"/>
<path d="M89.0855 13.5438C92.748 13.5348 96.3003 14.7965 99.1367 17.1137C101.973 19.431 103.918 22.6604 104.639 26.2512C105.361 29.842 104.814 33.5719 103.093 36.8049C101.372 40.0379 98.5828 42.5737 95.201 43.9801C91.8192 45.3865 88.0542 45.5763 84.5482 44.5171C81.0421 43.458 78.012 41.2154 75.9744 38.1719C73.9369 35.1284 73.0182 31.4724 73.3749 27.8272C73.7317 24.182 75.3418 20.7735 77.9307 18.1827C79.3743 16.6886 81.1091 15.5065 83.0277 14.7095C84.9464 13.9124 87.0081 13.5174 89.0855 13.5488V13.5438ZM82.0786 22.3727C80.4674 23.993 79.4675 26.1216 79.2491 28.3961C79.0307 30.6707 79.6073 32.9507 80.8808 34.8479C82.1543 36.7452 84.046 38.1425 86.2338 38.802C88.4216 39.4614 90.7703 39.3423 92.8802 38.4649C94.9901 37.5874 96.7306 36.0059 97.8057 33.9896C98.8807 31.9732 99.2237 29.6466 98.7763 27.4058C98.3289 25.1649 97.1188 23.1484 95.3519 21.6995C93.585 20.2505 91.3705 19.4587 89.0855 19.4587C87.7805 19.4404 86.4856 19.6895 85.2805 20.1907C84.0755 20.6918 82.9858 21.4344 82.0786 22.3727Z" fill="#ffffff"/>
<path d="M117.307 0H111.535V44.4293H117.307V0Z" fill="#ffffff"/>
<path d="M191.927 17.8428V0.0270992H197.699V44.4264H191.927V40.8745C190.702 42.2274 189.207 43.3089 187.539 44.0495C185.871 44.79 184.066 45.1732 182.241 45.1744C178.068 45.1412 174.077 43.46 171.137 40.4971C168.198 37.5342 166.548 33.5298 166.548 29.3562C166.548 25.1825 168.198 21.178 171.137 18.2151C174.077 15.2523 178.068 13.5711 182.241 13.5379C184.066 13.5392 185.871 13.9224 187.539 14.663C189.207 15.4035 190.702 16.485 191.927 17.8378V17.8428ZM191.927 31.4916V27.2457C191.554 25.3793 190.614 23.6735 189.236 22.3607C187.854 20.9811 186.093 20.0422 184.177 19.6626C182.261 19.2831 180.276 19.4799 178.472 20.2283C176.668 20.9767 175.126 22.2431 174.041 23.8673C172.956 25.4916 172.377 27.401 172.377 29.3541C172.377 31.3073 172.956 33.2166 174.041 34.8409C175.126 36.4652 176.668 37.7316 178.472 38.4799C180.276 39.2283 182.261 39.4252 184.177 39.0456C186.093 38.6661 187.854 37.7272 189.236 36.3475C190.611 35.0433 191.55 33.3475 191.927 31.4906" fill="#ffffff"/>
<path d="M214.906 37.9625C215.869 38.8145 217.618 39.2401 220.151 39.2395C221.456 39.26 222.752 39.0147 223.959 38.5183C225.166 38.022 226.259 37.2851 227.173 36.3525C227.413 36.0945 227.903 35.5208 228.645 34.6315L234.389 36.6855C233.458 38.0383 232.438 39.3271 231.335 40.5434C229.176 42.6888 226.444 44.1651 223.466 44.7948C220.488 45.4245 217.392 45.1808 214.55 44.093C211.708 43.0052 209.24 41.1197 207.443 38.663C205.647 36.2063 204.598 33.283 204.423 30.2446C204.249 27.2062 204.955 24.1819 206.458 21.5354C207.961 18.8888 210.196 16.7326 212.895 15.326C215.593 13.9193 218.641 13.3221 221.671 13.6061C224.702 13.8901 227.585 15.0432 229.976 16.9268C230.438 17.3148 230.891 17.7311 231.335 18.1758C231.519 18.3608 232.049 18.9438 232.918 19.9248L230.031 22.8387L214.906 37.9625ZM224.506 20.2027C223.856 19.7034 222.403 19.4534 220.147 19.4527C217.523 19.4583 215.009 20.505 213.157 22.3629C211.305 24.2209 210.266 26.7381 210.268 29.3616C210.268 31.5996 210.517 33.0519 211.016 33.7185L224.506 20.2027Z" fill="#ffffff"/>
<path d="M265.803 17.8707V15.8708H271.575V44.4533H265.803V40.8744C264.582 42.2253 263.092 43.3058 261.428 44.0464C259.764 44.7869 257.964 45.1711 256.143 45.1743C254.059 45.1909 251.992 44.7947 250.062 44.0086C248.132 43.2225 246.376 42.0621 244.896 40.5942C243.417 39.1262 242.242 37.3799 241.441 35.4559C240.639 33.5319 240.227 31.4683 240.227 29.3841C240.227 27.2998 240.639 25.2362 241.441 23.3122C242.242 21.3882 243.417 19.6419 244.896 18.174C246.376 16.7061 248.132 15.5456 250.062 14.7595C251.992 13.9734 254.059 13.5772 256.143 13.5938C257.962 13.596 259.76 13.9771 261.424 14.713C263.087 15.4489 264.578 16.5233 265.803 17.8677V17.8707ZM265.803 31.4925V27.2746C265.432 25.4133 264.502 23.7093 263.138 22.3897C261.756 21.0103 259.995 20.0717 258.08 19.6924C256.164 19.313 254.179 19.51 252.375 20.2583C250.571 21.0067 249.03 22.2729 247.945 23.897C246.861 25.5211 246.282 27.4302 246.282 29.3831C246.282 31.3359 246.861 33.245 247.945 34.8691C249.03 36.4932 250.571 37.7594 252.375 38.5078C254.179 39.2561 256.164 39.4531 258.08 39.0737C259.995 38.6944 261.756 37.7558 263.138 36.3764C264.502 35.057 265.432 33.3529 265.803 31.4915" fill="#ffffff"/>
<path d="M285.697 38.2955C286.016 38.6175 286.396 38.872 286.815 39.0438C287.235 39.2157 287.684 39.3012 288.138 39.2955C288.592 39.2966 289.042 39.2074 289.462 39.0331C289.882 38.8588 290.263 38.6029 290.583 38.2802C290.903 37.9574 291.156 37.5744 291.327 37.1532C291.498 36.732 291.583 36.281 291.579 35.8265C291.586 35.3773 291.501 34.9314 291.329 34.5163C291.157 34.1013 290.901 33.7259 290.579 33.4136C289.656 32.6125 288.663 31.8969 287.611 31.2756C286.013 30.4765 284.529 29.4676 283.198 28.2756C282.465 27.5681 281.885 26.718 281.494 25.7777C281.103 24.8375 280.908 23.827 280.923 22.8087C280.921 20.7446 281.738 18.764 283.194 17.3016C284.651 15.8393 286.628 15.0147 288.693 15.0088C289.686 14.9816 290.675 15.1598 291.597 15.5323C292.518 15.9048 293.353 16.4637 294.048 17.1738C295.016 18.0986 295.693 19.2858 295.996 20.5898L290.419 22.1987C290.35 21.8712 290.218 21.5601 290.031 21.2828C289.854 21.1133 289.645 20.9815 289.416 20.8956C289.187 20.8096 288.943 20.7712 288.699 20.7828C288.3 20.7818 287.909 20.899 287.577 21.1195C287.244 21.3401 286.984 21.6542 286.83 22.0222C286.676 22.3902 286.634 22.7956 286.709 23.1874C286.785 23.5792 286.975 23.9398 287.256 24.2237C288.008 24.8472 288.806 25.4128 289.644 25.9157C291.454 26.8354 293.134 27.9933 294.637 29.3586C295.49 30.2114 296.167 31.2237 296.628 32.3378C297.09 33.452 297.327 34.6461 297.327 35.852C297.327 37.058 297.09 38.2521 296.628 39.3662C296.167 40.4804 295.49 41.4927 294.637 42.3454C293.785 43.1982 292.772 43.8746 291.658 44.3361C290.544 44.7976 289.35 45.0351 288.144 45.0351C286.938 45.0351 285.744 44.7976 284.63 44.3361C283.516 43.8746 282.503 43.1982 281.651 42.3454C280.395 41.0769 279.544 39.4641 279.207 37.7115L284.926 36.4905C285.006 37.1527 285.276 37.7777 285.703 38.2905" fill="#ffffff"/>
<path d="M159.432 19.0688C158.495 16.8623 157.144 14.8556 155.453 13.1569C153.721 11.4354 151.665 10.0735 149.405 9.14951C147.144 8.22552 144.723 7.75769 142.281 7.77295C138.953 7.75913 135.68 8.62132 132.79 10.2729C131.413 11.0636 130.147 12.0334 129.024 13.1569C126.74 15.4342 125.093 18.2714 124.249 21.3847C123.583 23.8085 123.405 26.3408 123.728 28.8339C124.05 31.3269 124.865 33.7309 126.126 35.9055C128.567 40.1075 132.572 43.1727 137.266 44.4314C137.925 44.6061 138.592 44.7446 139.266 44.8464V27.7336H145.213V44.8544C145.896 44.7526 146.573 44.611 147.24 44.4304C148.797 44.0053 150.292 43.3797 151.687 42.5694C154.449 40.9637 156.746 38.6672 158.352 35.9055C159.167 34.5003 159.797 32.9959 160.227 31.4296C161.338 27.335 161.058 22.9876 159.433 19.0688H159.432ZM145.185 22.7057C144.4 23.478 143.342 23.9107 142.241 23.9107C141.139 23.9107 140.082 23.478 139.296 22.7057C138.904 22.3189 138.594 21.8581 138.381 21.3502C138.169 20.8423 138.06 20.2973 138.06 19.7468C138.06 19.1963 138.169 18.6513 138.381 18.1433C138.594 17.6354 138.904 17.1746 139.296 16.7878C140.081 16.0141 141.139 15.5804 142.241 15.5804C143.343 15.5804 144.4 16.0141 145.185 16.7878C145.577 17.1747 145.887 17.6355 146.1 18.1434C146.312 18.6513 146.421 19.1963 146.421 19.7468C146.421 20.2972 146.312 20.8422 146.1 21.3501C145.887 21.858 145.577 22.3188 145.185 22.7057Z" fill="#ffffff"/>
</g>
<defs>
<clipPath id="clip0">
<rect width="302.078" height="66.001" fill="white"/>
</clipPath>
</defs>
</svg>
